<svg version="1.2" xmlns="http://www.w3.org/2000/svg" viewBox="0 0 78 43" width="78" height="43">
	<title>logo</title>
	<defs>
		<clipPath clipPathUnits="userSpaceOnUse" id="cp1">
			<path d="m0 0h78v43h-78z"/>
		</clipPath>
	</defs>
	<style>
		.s0 { fill: #000000 } 
	</style>
	<g id="Clip-Path" clip-path="url(#cp1)">
		<g>
			<path class="s0" d="m25.8 7.8v-7.8h-25.8v39.8h9.6v-16.1h12.1v-7.5h-12.1v-8.4z"/>
			<path class="s0" d="m50 7.8v-7.8h-24.2v39.8h24.2v-7.7h-14.6v-8.8h12.9v-7.5h-12.9v-8z"/>
			<path class="s0" d="m56.7 41.1q-0.4 0-0.5-0.1-0.2-0.2-0.2-0.5v-0.7h-2.1v0.7q0 1.3 0.7 1.8 0.6 0.6 1.8 0.6h1v-1.8z"/>
			<path class="s0" d="m62.5 39.8q-0.1 0.6-0.4 0.9-0.4 0.5-1 0.5-0.6 0-1-0.5-0.3-0.3-0.4-0.9h-2.1q0 0.9 0.4 1.5 0.5 0.8 1.3 1.3 0.8 0.4 1.8 0.4 1 0 1.8-0.4 0.8-0.5 1.3-1.3 0.4-0.6 0.4-1.5z"/>
			<path class="s0" d="m69.7 39.8q-0.1 0.6-0.4 0.9-0.5 0.5-1.1 0.5-0.6 0-0.9-0.5-0.4-0.3-0.4-0.9h-2.2q0.1 0.9 0.5 1.5 0.4 0.8 1.2 1.3 0.8 0.4 1.8 0.4 1 0 1.9-0.4 0.8-0.5 1.2-1.3 0.4-0.6 0.5-1.5z"/>
			<path class="s0" d="m72.3 39.8v3.1h2.1v-3.1z"/>
			<path class="s0" d="m78 0h-78v7.9h66.9q-8.4 12.1-16.9 24.2v7.7h3.9v-2h-0.8v-1.8h0.8v-1.6h2.1v1.6h1.4v1.8h-1.4v2h1.6q-0.1-0.1-0.1-0.3 0-1.1 0.5-1.9 0.5-0.8 1.3-1.2 0.8-0.5 1.8-0.5 1 0 1.8 0.5 0.8 0.4 1.3 1.2 0.4 0.8 0.4 1.9 0 0.2 0 0.3h0.1q0-0.1 0-0.3 0-1.1 0.5-1.9 0.5-0.8 1.3-1.2 0.8-0.5 1.8-0.5 1 0 1.8 0.5 0.8 0.4 1.3 1.2 0.4 0.8 0.4 1.9 0 0.2 0 0.3h0.5v-6h2.1v6h3.6v-7.9h-17l17-24.5zm-9.7 37.7q-0.6 0-1 0.5-0.4 0.4-0.4 1.2 0 0.2 0 0.4h2.8q0-0.2 0-0.4 0-0.8-0.4-1.2-0.4-0.5-1-0.5zm-6.2 0.5q-0.4-0.5-1-0.5-0.6 0-1 0.5-0.4 0.4-0.4 1.2 0 0.2 0 0.4h2.8q0-0.2 0-0.4 0-0.8-0.4-1.2zm7.2 0q-0.4-0.5-1-0.5-0.6 0-1 0.5-0.4 0.4-0.4 1.2 0 0.2 0 0.4h2.8q0-0.2 0-0.4 0-0.8-0.4-1.2zm-8.2-0.5q-0.6 0-1 0.5-0.4 0.4-0.4 1.2 0 0.2 0 0.4h2.8q0-0.2 0-0.4 0-0.8-0.4-1.2-0.4-0.5-1-0.5zm1 0.5q-0.4-0.5-1-0.5-0.6 0-1 0.5-0.4 0.4-0.4 1.2 0 0.2 0 0.4h2.8q0-0.2 0-0.4 0-0.8-0.4-1.2z"/>
		</g>
	</g>
</svg>