<svg width="78" height="43" viewBox="0 0 78 43" fill="none" xmlns="http://www.w3.org/2000/svg">
<g clip-path="url(#clip0_130_5)">
<path d="M25.7746 7.77294V0H0V39.8283H9.64399V23.7154H21.7139V16.1694H9.64399V7.77294H25.7746Z" fill="#E0E0E0"/>
<path d="M50.0257 7.77294V0H25.7744V39.8283H50.0257V32.0554H35.4184V23.318H48.3338V15.8294H35.4184V7.77294H50.0257Z" fill="#E0E0E0"/>
<path d="M56.6685 41.1182C56.4403 41.1182 56.2777 41.0737 56.1797 40.9829C56.0818 40.893 56.0333 40.7456 56.0333 40.5401V39.8283H53.9429V40.5161C53.9429 41.3606 54.154 41.9688 54.5781 42.3422C55.0021 42.7156 55.5931 42.9015 56.3509 42.9015H57.4144V41.1182H56.6685Z" fill="#E0E0E0"/>
<path d="M62.4909 39.8283C62.4407 40.2069 62.3079 40.5092 62.0916 40.7371C61.8097 41.0326 61.47 41.1799 61.0706 41.1799C60.6713 41.1799 60.3384 41.0326 60.0735 40.7371C59.8692 40.5092 59.744 40.2069 59.698 39.8283H57.5625C57.6059 40.3945 57.7541 40.8981 58.0078 41.3401C58.3135 41.8728 58.7333 42.2822 59.2672 42.5692C59.8011 42.857 60.4022 43 61.0706 43C61.7391 43 62.3436 42.857 62.886 42.5692C63.4284 42.2822 63.8559 41.8711 64.1701 41.3341C64.4289 40.8895 64.5813 40.3885 64.6256 39.8283H62.4909Z" fill="#E0E0E0"/>
<path d="M69.6682 39.8283C69.6179 40.2069 69.4851 40.5092 69.268 40.7371C68.987 41.0326 68.6464 41.1799 68.247 41.1799C67.8477 41.1799 67.5156 41.0326 67.2508 40.7371C67.0464 40.5092 66.9213 40.2069 66.8753 39.8283H64.7397C64.7832 40.3945 64.9313 40.8981 65.1842 41.3401C65.4908 41.8728 65.9097 42.2822 66.4436 42.5692C66.9775 42.857 67.5786 43 68.247 43C68.9155 43 69.5209 42.857 70.0633 42.5692C70.6048 42.2822 71.0331 41.8711 71.3465 41.3341C71.6062 40.8895 71.7586 40.3885 71.8029 39.8283H69.6682Z" fill="#E0E0E0"/>
<path d="M72.3188 39.8283V42.9015H74.4093V39.8283H72.3188Z" fill="#E0E0E0"/>
<path d="M62.1035 38.2035C61.8302 37.908 61.4938 37.7607 61.0945 37.7607C60.6951 37.7607 60.3494 37.9063 60.0804 38.1975C59.8113 38.4887 59.6768 38.9127 59.6768 39.4703C59.6768 39.5962 59.6836 39.7152 59.698 39.8283H62.4909C62.5054 39.7152 62.5131 39.5962 62.5131 39.4703C62.5131 38.9212 62.3768 38.499 62.1035 38.2035ZM69.2807 38.2035C69.0074 37.908 68.6711 37.7607 68.2717 37.7607C67.8724 37.7607 67.5258 37.9063 67.2567 38.1975C66.9877 38.4887 66.854 38.9127 66.854 39.4703C66.854 39.5962 66.8608 39.7152 66.8753 39.8283H69.6682C69.6826 39.7152 69.6903 39.5962 69.6903 39.4703C69.6903 38.9212 69.5532 38.499 69.2807 38.2035ZM78 0H0V7.94253H66.9459C61.3057 15.9801 55.6662 24.0177 50.026 32.0554V39.8283H53.9428V37.7855H53.1109V36.039H53.9428V34.3663H56.0332V36.039H57.4024V37.7855H56.0332V39.8283H57.5625C57.5531 39.7118 57.5489 39.5919 57.5489 39.4703C57.5489 38.7654 57.7039 38.1444 58.0138 37.6073C58.3237 37.0703 58.7469 36.6583 59.2851 36.3714C59.8232 36.0844 60.4261 35.9405 61.0945 35.9405C61.7629 35.9405 62.3666 36.0844 62.9048 36.3714C63.4421 36.6583 63.8661 37.0703 64.176 37.6073C64.486 38.1444 64.6401 38.7654 64.6401 39.4703C64.6401 39.5919 64.6358 39.7118 64.6256 39.8283H64.7397C64.7304 39.7118 64.7261 39.5919 64.7261 39.4703C64.7261 38.7654 64.8811 38.1444 65.191 37.6073C65.5001 37.0703 65.9242 36.6583 66.4623 36.3714C67.0004 36.0844 67.6033 35.9405 68.2717 35.9405C68.9401 35.9405 69.543 36.0844 70.0811 36.3714C70.6193 36.6583 71.0433 37.0703 71.3533 37.6073C71.6624 38.1444 71.8173 38.7654 71.8173 39.4703C71.8173 39.5919 71.8131 39.7118 71.8028 39.8283H72.3189V33.8009H74.4093V39.8283H78V31.8858H60.9676L78 7.37552V0ZM68.2717 37.7607C67.8639 37.7607 67.5258 37.9063 67.2567 38.1975C66.9877 38.4887 66.854 38.9127 66.854 39.4703C66.854 39.5962 66.8608 39.7152 66.8753 39.8283H69.6682C69.6826 39.7152 69.6903 39.5962 69.6903 39.4703C69.6903 38.9212 69.5532 38.499 69.2807 38.2035C69.0074 37.908 68.6711 37.7607 68.2717 37.7607ZM61.0945 37.7607C60.6875 37.7607 60.3494 37.9063 60.0804 38.1975C59.8113 38.4887 59.6768 38.9127 59.6768 39.4703C59.6768 39.5962 59.6836 39.7152 59.698 39.8283H62.4909C62.5054 39.7152 62.5131 39.5962 62.5131 39.4703C62.5131 38.9212 62.3768 38.499 62.1035 38.2035C61.8302 37.908 61.4938 37.7607 61.0945 37.7607ZM62.1035 38.2035C61.8302 37.908 61.4938 37.7607 61.0945 37.7607C60.6951 37.7607 60.3494 37.9063 60.0804 38.1975C59.8113 38.4887 59.6768 38.9127 59.6768 39.4703C59.6768 39.5962 59.6836 39.7152 59.698 39.8283H62.4909C62.5054 39.7152 62.5131 39.5962 62.5131 39.4703C62.5131 38.9212 62.3768 38.499 62.1035 38.2035Z" fill="#E0E0E0"/>
</g>
<defs>
<clipPath id="clip0_130_5">
<rect width="78" height="43" fill="white"/>
</clipPath>
</defs>
</svg>
